<?xml version="1.0" encoding="UTF-8" standalone="no"?>
<!-- Created with Inkscape (http://www.inkscape.org/) -->

<svg
   width="91.520668mm"
   height="112.73128mm"
   viewBox="0 0 91.52067 112.73128"
   version="1.1"
   id="svg1"
   xml:space="preserve"
   xmlns="http://www.w3.org/2000/svg"
   xmlns:svg="http://www.w3.org/2000/svg"><defs
     id="defs1"><clipPath
       clipPathUnits="userSpaceOnUse"
       id="clipPath105"><path
         d="M 0,9231.217 H 1920 V 0 H 0 Z"
         transform="translate(-786.98349,-2174.9243)"
         id="path105" /></clipPath><clipPath
       clipPathUnits="userSpaceOnUse"
       id="clipPath115"><path
         d="M 0,9231.217 H 1920 V 0 H 0 Z"
         transform="translate(-1015.0626,-2122.8146)"
         id="path115" /></clipPath></defs><g
     id="layer1"
     transform="matrix(0.81258136,0.21773052,-0.21773052,0.81258136,-27.121657,-60.953132)"><g
       id="g3125"
       transform="matrix(0.26458333,0,0,0.26458333,-210.96938,-2432.1543)"><g
         id="g1"><path
           fill="#bb86fb"
           id="main"
           d="m 0,0 c -6.349,-30.244 -9.71,-61.588 -9.71,-93.72 0,-104.239 35.164,-200.252 94.245,-276.875 0.006,-0.008 0.016,-0.009 0.023,-0.003 l 182.895,145.743 c 64.426,51.338 40.936,154.396 -39.374,172.744 L 0.001,0 Z"
           transform="matrix(1.3333333,0,0,-1.3333333,1049.3113,9408.3943)"
           clip-path="url(#clipPath105)"
           style="fill:#6200ed;fill-opacity:1" /><path
           fill="#a060fc"
           id="secondary"
           d="m 0,0 -21.297,4.865 c -2.929,-15.042 -4.479,-30.577 -4.479,-46.475 0,-54.28 17.882,-104.384 48.076,-144.741 l 17.074,13.606 C 103.8,-121.407 80.31,-18.349 0,0"
           transform="matrix(1.3333333,0,0,-1.3333333,1353.4168,9477.874)"
           clip-path="url(#clipPath115)"
           style="fill:#5402d3;fill-opacity:1" /></g></g></g></svg>
